<?xml version="1.0" encoding="utf-8"?>
<!-- Generator: Adobe Illustrator 16.0.0, SVG Export Plug-In . SVG Version: 6.00 Build 0)  -->
<!DOCTYPE svg PUBLIC "-//W3C//DTD SVG 1.1//EN" "http://www.w3.org/Graphics/SVG/1.1/DTD/svg11.dtd">
<svg version="1.1" xmlns="http://www.w3.org/2000/svg" xmlns:xlink="http://www.w3.org/1999/xlink" x="0px" y="0px" width="374px"
	 height="77px" viewBox="0 0 374 77" enable-background="new 0 0 374 77" xml:space="preserve">
<g id="Layer_1">
	<g display="none">
		<defs>
			<rect id="SVGID_1_" width="374" height="77"/>
		</defs>
		<clipPath id="SVGID_2_" display="inline">
			<use xlink:href="#SVGID_1_"  overflow="visible"/>
		</clipPath>
		<image overflow="visible" clip-path="url(#SVGID_2_)" width="374" height="77" xlink:href="gp-logo.png" >
		</image>
	</g>
	<path fill="#2C358A" d="M105.614,47.942h9.646v7.707c-1.474,0.497-3.091,0.748-6.969,0.748c-1.613,0-3.515-0.699-5.076-1.848
		l-0.331-0.314c-1.689-1.609-2.97-3.412-3.261-4.57c-0.453-2.288-0.699-5.255-0.699-8.367c0-3.076,0.255-6.097,0.69-8.237
		c0.479-1.594,1.72-3.354,3.246-4.594l0.209-0.187c1.846-1.169,4.144-1.861,6.247-1.861c1.386-0.072,5.551,0.163,8.201,1.439
		l0.423,0.203l2.695-5.372l-0.429-0.214c-1.983-1.008-5.417-2.208-10.521-2.208h-0.254c-3.487,0-7.021,1.115-9.958,3.135
		l-0.01-0.013c-2.724,1.73-4.844,4.836-5.671,8.321C93.303,34.181,93,37.86,93,41.298c0,3.563,0.303,7.267,0.795,9.679
		c0.729,3.157,2.86,6.385,5.41,8.209c2.702,2.141,6.017,3.368,9.085,3.368c6.132,0,8.372-0.913,10.976-1.971l1.915-0.87V41.786
		h-15.567V47.942z"/>
	<path fill="#2C358A" d="M164.731,20.703l-13.33,40.547l-0.225-0.428c-0.313-0.58-0.85-1.454-1.364-2.295
		c-0.273-0.443-0.539-0.879-0.779-1.271h0.115l-0.894-1.391c-0.644-1.002-1.314-2.039-1.844-2.987
		c-0.93-1.43-1.882-3.063-2.794-4.647l-0.809-1.39c-0.279-0.483-0.604-0.968-0.917-1.443c-0.236-0.356-0.467-0.703-0.67-1.036
		c4.207-2.092,7.106-6.646,7.106-11.268c0-6.831-5.562-12.391-12.392-12.391h-12.175v40.833h5.853V45.562h5.272l9.571,15.974h6.856
		h0.243h6.156l0.106-0.343c1.541-5.141,2.806-9.117,3.851-12.137h11.355l4.047,12.479h6.398l-13.498-40.833H164.731z
		 M129.614,26.656h6.322c3.471,0,6.395,2.95,6.395,6.438c0,3.552-2.862,6.442-6.395,6.442h-6.322V26.656z M171.004,43.032h-7.309
		c2.144-6.568,3.161-9.615,3.645-11.073C168.313,34.989,170.187,40.611,171.004,43.032"/>
	<path fill="#2C358A" d="M210.209,20.703l-0.147,0.229c-0.709,1.142-1.704,2.644-2.561,3.875c-0.325,0.582-0.659,1.131-1.116,1.822
		c-0.572,0.865-1.146,1.783-1.719,2.702c-0.559,0.906-1.122,1.804-1.685,2.654l-0.642,0.966c-0.898,1.357-1.756,2.646-2.579,3.963
		l-10.433-16.21h-5.495v40.865h5.999V32.819l10.017,15.68l0.402-0.65c0.215-0.354,0.525-0.845,0.867-1.377
		c0.561-0.888,1.193-1.869,1.546-2.487c2.021-3.373,3.716-6.07,5.183-8.296c0.56-1.026,1.229-2.084,1.861-3.027v28.906h5.921V20.703
		H210.209z"/>
	<path fill="#DD3F26" d="M231.454,20.541h-12.405v41.123h6.314V45.574h6.091c6.999,0,12.478-5.51,12.478-12.552
		C243.932,26.023,238.453,20.541,231.454,20.541 M231.454,39.263h-6.091V26.785h6.091c3.382,0,6.236,2.853,6.236,6.237
		C237.69,36.461,234.893,39.263,231.454,39.263"/>
	<path fill="#DD3F26" d="M270.047,23.771c-2.632-1.979-6.145-3.206-9.171-3.206h-1.775c-3.026,0-6.427,1.198-9.104,3.21
		c-2.462,1.894-4.433,4.97-5.13,8.029c-0.497,2.437-0.794,5.934-0.794,9.362c0,3.501,0.29,6.881,0.794,9.299
		c0.697,3.045,2.662,6.122,5.139,8.023c2.672,2.009,6.072,3.202,9.096,3.202h1.775c3.019,0,6.535-1.223,9.171-3.202
		c2.54-1.908,4.608-5.138,5.135-8.032c0.497-2.369,0.796-5.844,0.796-9.29c0-3.428-0.299-6.928-0.791-9.35
		C274.655,28.911,272.587,25.671,270.047,23.771 M260.876,55.406h-1.775c-3.578,0-7.231-3.307-8.102-6.266h-0.005
		c-0.386-2.191-0.604-5.087-0.604-7.974c0-2.89,0.224-5.881,0.604-8.05h0.005c0.87-2.959,4.523-6.266,8.102-6.266h1.775
		c3.649,0,7.238,3.312,8.18,6.279h0.009c0.392,1.946,0.601,4.719,0.601,8.037c0,3.317-0.204,5.998-0.601,7.961h-0.009
		C268.114,52.1,264.525,55.406,260.876,55.406"/>
	<path fill="#DD3F26" d="M309.979,21.053c-0.587,2.853-1.266,6.249-1.936,9.6c-0.536,2.683-1.063,5.333-1.541,7.652
		c-0.322,1.615-0.649,3.193-0.973,4.741c-0.538,2.613-1.062,5.107-1.542,7.655l-7.921-13.86l-0.549,0.992
		c-0.365,0.645-0.837,1.522-1.354,2.471c-0.909,1.661-1.932,3.537-2.611,4.712c-0.453,0.765-0.986,1.717-1.484,2.613l-0.565,1.016
		c-0.286,0.471-0.585,1.021-0.884,1.56c-0.08,0.163-0.173,0.321-0.258,0.48l-6.083-30.144h-6.539l8.044,41.116h5.574l0.704-1.215
		c0.701-1.203,1.491-2.564,2.107-3.747c0.69-1.242,1.429-2.552,2.166-3.865c0.591-1.047,1.184-2.096,1.75-3.115l6.777,11.942h5.58
		l8.05-41.116h-6.405L309.979,21.053z"/>
	<polygon fill="#DD3F26" points="318.189,61.604 340.032,61.604 340.032,55.312 324.505,55.312 324.505,44.289 335.778,44.289 
		335.778,37.93 324.505,37.93 324.505,26.762 340.032,26.762 340.032,20.477 318.189,20.477 	"/>
	<path fill="#DD3F26" d="M370.507,60.718c-0.317-0.606-0.869-1.504-1.402-2.369c-0.207-0.334-0.408-0.662-0.597-0.972h0.122
		l-1.067-1.662c-0.646-0.985-1.304-2.012-1.835-2.958c-0.953-1.467-1.931-3.161-2.88-4.787l-0.717-1.237
		c-0.271-0.49-0.598-0.969-0.916-1.452c-0.205-0.301-0.402-0.593-0.575-0.877c4.169-2.153,7.033-6.71,7.033-11.323
		c0-6.912-5.632-12.54-12.545-12.54h-12.339v41.114h6.177V45.692h5.014l9.571,15.962H371L370.507,60.718z M348.966,26.815h6.162
		c3.379,0,6.239,2.869,6.239,6.265c0,3.462-2.808,6.275-6.239,6.275h-6.162V26.815z"/>
</g>
<g id="Layer_2">
	<path fill-rule="evenodd" clip-rule="evenodd" fill="#FBB72A" d="M28.375,15.655c-1.859-0.77-4.123-1.473-6.843-1.187
		c-2.673-2.289-2.161-6.841-0.061-8.958c1.207-1.218,2.867-2.031,5.105-1.869c2.402,0.173,4.319,1.722,5.226,3.732
		c0.26,0.584,0.769,1.657,0.619,2.366c-0.081,0.386-0.834,0.948-1.179,1.306C29.985,12.378,29.041,13.831,28.375,15.655"/>
	<path fill-rule="evenodd" clip-rule="evenodd" fill="#FBE400" d="M51.598,14.352c0.27-0.107,0.975-0.107,1.24,0H51.598z"/>
	<path fill-rule="evenodd" clip-rule="evenodd" fill="#F9A81A" d="M59.373,28.354c0.715-1.521,1.218-3.234,1.307-5.291
		c0.018-0.413-0.169-1.047-0.064-1.496c0.154-0.614,1.208-1.003,1.558-1.183c1.046-0.537,1.937-0.804,3.55-0.684
		c2.973,0.228,5.379,2.701,5.666,5.479c0.347,3.357-1.414,5.644-3.737,6.653c-0.614,0.272-1.712,0.717-2.368,0.563
		c-0.373-0.088-0.941-0.838-1.303-1.183C62.662,29.967,61.228,29.05,59.373,28.354"/>
	<path fill-rule="evenodd" clip-rule="evenodd" fill="#FBB72A" d="M15.309,20.755c-0.037,0.195,0.079,0.544-0.057,0.625
		C15.28,21.188,15.165,20.846,15.309,20.755"/>
	<path fill-rule="evenodd" clip-rule="evenodd" fill="#FBB72A" d="M15.252,22.193c0.135,0.085,0.02,0.429,0.055,0.617
		C15.165,22.727,15.282,22.383,15.252,22.193"/>
	<path fill-rule="evenodd" clip-rule="evenodd" fill="#FBB72A" d="M14.315,22.378v0.994C14.209,23.18,14.209,22.563,14.315,22.378"
		/>
	<path fill-rule="evenodd" clip-rule="evenodd" fill="#FBB72A" d="M20.415,35.011c0.332-0.108,1.099-0.108,1.431,0H20.415z"/>
	<path fill-rule="evenodd" clip-rule="evenodd" fill="#FBB72A" d="M37.532,7.566c0.037,2.508-0.108,4.83-0.068,7.34
		c-2.19,1.859-3.478,5.882-2.241,9.4c-1.918,0.774-3.821,1.576-5.726,2.362c-1.464-2.91-3.784-4.964-8.026-5.104v0.69
		c0.061-0.878-0.73-1.384-1.304-1.993c-0.487-0.517-0.948-0.945-1.308-1.307c-0.968-0.967-1.678-1.993-2.614-2.554
		c3.698-1.844,9.703-1.043,12.76,0.93C30.512,12.747,33.243,9.374,37.532,7.566"/>
	<path fill-rule="evenodd" clip-rule="evenodd" fill="#FBB72A" d="M10.019,33.704c0.329-0.382,0.677-0.73,1.057-1.058
		C10.749,33.023,10.398,33.379,10.019,33.704"/>
	<path fill-rule="evenodd" clip-rule="evenodd" fill="#F9A81A" d="M67.552,37.846c-0.138-1.279-1.118-2.417-1.696-3.211
		c-1.994-2.682-4.786-4.63-8.165-5.601c1.979-2.782,2.787-9.105,0.994-12.762c0.027,0.092,0.073,0.108,0,0.189
		c-0.673,0.796-1.711,1.62-2.607,2.493c-0.92,0.882-1.805,1.792-2.618,2.55c-0.016,4.09-2.201,6.548-5.043,8.03
		c0.788,1.908,1.565,3.828,2.372,5.725c3.51-1.299,8.1,0.384,9.517,2.529c-0.028,0-0.066,0-0.09-0.003
		c0.142,0.212,0.142,0.5,0.015,0.721c-0.007,0.062-0.021,0.12-0.051,0.172h7.345C67.467,38.363,67.594,38.254,67.552,37.846"/>
	<path fill-rule="evenodd" clip-rule="evenodd" fill="#FCD10F" d="M37.532,7.566V7.5c4.049,1.937,6.938,5.05,8.21,9.774
		c2.947-1.979,9.124-2.734,12.944-1.002c0.027,0.092,0.073,0.111,0,0.192c-0.673,0.793-1.711,1.617-2.607,2.49
		c-0.92,0.882-1.805,1.792-2.618,2.55c-4.38,0.037-6.589,2.245-8.214,5.042c-1.875-0.831-3.875-1.521-5.66-2.427
		c1.245-3.442-0.064-7.535-2.123-9.213C37.424,12.396,37.569,10.074,37.532,7.566"/>
	<path fill-rule="evenodd" clip-rule="evenodd" fill="#F89526" d="M21.471,22.254c0.061-0.878-0.73-1.384-1.305-1.996
		c-0.487-0.514-0.948-0.944-1.307-1.304c-0.969-0.97-1.678-1.992-2.615-2.554c-0.458,1.302-0.889,2.641-0.935,4.354
		c-0.037,0.195,0.079,0.544-0.058,0.625v0.813c0.137,0.088,0.021,0.426,0.058,0.617c0.124,2.678,0.973,4.633,1.927,6.474
		c-2.498,0.676-4.489,1.859-6.16,3.362c-0.327,0.377-0.677,0.733-1.057,1.058c-0.989,1.104-1.821,2.216-2.494,4.085v0.833h7.355
		c-0.049-0.171-0.017-0.352,0.059-0.505c-0.011-0.122,0.006-0.231,0.054-0.34c-0.103-0.211,0.347-0.787,0.455-0.88
		c1.23-1.121,2.967-1.723,4.965-1.886c0.333-0.104,1.099-0.104,1.431,0c0.838,0.071,1.579,0.242,2.239,0.501
		c0.896-1.828,1.63-3.808,2.425-5.729C23.779,28.325,21.801,26.112,21.471,22.254"/>
	<path fill-rule="evenodd" clip-rule="evenodd" fill="#F89526" d="M14.315,23.374c0.081,2.075,0.609,3.708,1.243,5.223
		c-1.806,0.646-3.223,1.524-4.608,2.803c-0.349,0.324-0.909,1.095-1.241,1.183c-0.594,0.155-1.88-0.314-2.428-0.558
		c-2.166-0.967-3.962-3.227-3.731-6.353c0.222-3.108,2.732-5.609,5.845-5.843c2.328-0.183,3.746,0.709,4.976,1.864
		c-0.068,0.174-0.062,0.426-0.056,0.687C14.209,22.563,14.209,23.18,14.315,23.374"/>
	<path fill-rule="evenodd" clip-rule="evenodd" fill="#FCD10F" d="M51.598,14.352c-2.032,0.086-3.64,0.587-5.105,1.241
		c-0.66-1.782-1.555-3.195-2.794-4.604c-0.35-0.378-1.094-0.869-1.193-1.248c-0.17-0.682,0.277-1.704,0.498-2.243
		c0.833-2.028,2.728-3.696,5.231-3.919c3.975-0.345,6.977,2.608,7.028,6.289c0.036,2.049-0.802,3.348-1.868,4.538
		c-0.101-0.099-0.362-0.043-0.557-0.054C52.573,14.244,51.868,14.244,51.598,14.352"/>
	<path fill-rule="evenodd" clip-rule="evenodd" fill="#DD3F26" d="M46.703,60.814c1.863,0.766,4.128,1.472,6.848,1.183
		c2.675,2.292,2.167,6.841,0.061,8.965c-1.21,1.217-2.87,2.023-5.104,1.867c-2.405-0.172-4.322-1.728-5.23-3.737
		c-0.261-0.584-0.766-1.653-0.617-2.359c0.077-0.39,0.838-0.95,1.179-1.312C45.098,64.095,46.038,62.636,46.703,60.814"/>
	<path fill-rule="evenodd" clip-rule="evenodd" fill="#FBE400" d="M23.488,62.121c-0.271,0.104-0.975,0.104-1.238,0H23.488z"/>
	<path fill-rule="evenodd" clip-rule="evenodd" fill="#F9A81A" d="M15.706,48.118c-0.713,1.522-1.22,3.238-1.307,5.288
		c-0.017,0.416,0.17,1.046,0.063,1.495c-0.146,0.609-1.207,1.003-1.556,1.179c-1.046,0.54-1.934,0.811-3.549,0.691
		c-2.971-0.228-5.373-2.709-5.667-5.481c-0.34-3.358,1.423-5.644,3.745-6.658c0.613-0.268,1.708-0.709,2.355-0.559
		c0.386,0.087,0.954,0.836,1.309,1.183C12.413,46.498,13.85,47.423,15.706,48.118"/>
	<path fill-rule="evenodd" clip-rule="evenodd" fill="#FBB72A" d="M59.775,55.714c0.038-0.191-0.085-0.54,0.056-0.628
		C59.797,55.276,59.917,55.625,59.775,55.714"/>
	<path fill-rule="evenodd" clip-rule="evenodd" fill="#FBB72A" d="M59.832,54.284c-0.139-0.093-0.021-0.438-0.054-0.63
		C59.917,53.74,59.795,54.091,59.832,54.284"/>
	<path fill-rule="evenodd" clip-rule="evenodd" fill="#FBB72A" d="M60.769,54.091v-0.993C60.872,53.285,60.872,53.902,60.769,54.091
		"/>
	<path fill-rule="evenodd" clip-rule="evenodd" fill="#FBB72A" d="M54.669,41.457c-0.338,0.11-1.093,0.11-1.431,0H54.669z"/>
	<path fill-rule="evenodd" clip-rule="evenodd" fill="#DD3F26" d="M37.552,68.908c-0.042-2.514,0.108-4.832,0.064-7.345
		c2.191-1.855,3.482-5.88,2.238-9.4c1.918-0.775,3.824-1.568,5.729-2.361c1.459,2.91,3.789,4.967,8.029,5.1v-0.683
		c-0.062,0.866,0.733,1.385,1.308,1.989c0.485,0.517,0.946,0.942,1.306,1.306c0.964,0.971,1.671,1.997,2.607,2.558
		c-3.696,1.845-9.7,1.039-12.759-0.94C44.568,63.724,41.836,67.093,37.552,68.908"/>
	<path fill-rule="evenodd" clip-rule="evenodd" fill="#FBB72A" d="M65.063,42.766c-0.327,0.382-0.679,0.73-1.061,1.058
		C64.33,43.441,64.686,43.092,65.063,42.766"/>
	<path fill-rule="evenodd" clip-rule="evenodd" fill="#F9A81A" d="M24.296,41.21c-3.401,1.261-7.611-0.078-9.167-2.106
		c-0.026-0.024-0.05-0.054-0.08-0.09c-0.021-0.034-0.064-0.07-0.09-0.103h0.034c-0.054-0.128-0.067-0.272-0.044-0.408
		c0-0.077-0.004-0.165,0.028-0.243c-0.047-0.15-0.051-0.321,0.008-0.47h-7.43c-0.14,0.454-0.08,0.783,0,1.18
		c0.179,0.897,1.095,2.069,1.673,2.862c1.991,2.683,4.788,4.639,8.162,5.607c-1.974,2.776-2.785,9.102-0.998,12.755
		c-0.024-0.094-0.071-0.101,0-0.185c0.671-0.798,1.709-1.619,2.614-2.493c0.922-0.883,1.801-1.794,2.612-2.552
		c0.018-4.091,2.213-6.546,5.043-8.029C25.878,45.025,25.099,43.105,24.296,41.21"/>
	<path fill-rule="evenodd" clip-rule="evenodd" fill="#DE5A26" d="M37.552,68.908v0.056c-4.059-1.937-6.939-5.046-8.214-9.763
		c-2.941,1.97-9.127,2.728-12.946,0.992c-0.024-0.096-0.071-0.104,0-0.185c0.671-0.794,1.708-1.619,2.616-2.495
		c0.92-0.881,1.799-1.792,2.61-2.55c4.38-0.04,6.59-2.248,8.222-5.042c1.863,0.828,3.868,1.521,5.658,2.429
		c-1.246,3.44,0.065,7.538,2.118,9.213C37.661,64.076,37.51,66.395,37.552,68.908"/>
	<path fill-rule="evenodd" clip-rule="evenodd" fill="#F27C21" d="M60.268,37.846c0.09,0.212,0.047,0.44-0.066,0.63
		c0,0.014-0.016,0.022-0.016,0.038c0.019,0.187-0.031,0.378-0.163,0.515c-0.024,0.14-0.229,0.239-0.313,0.313
		c-1.229,1.117-3.046,1.951-5.042,2.114c-0.336,0.11-1.093,0.11-1.429,0c-0.843-0.074-1.582-0.243-2.243-0.5
		c-0.892,1.831-1.64,3.809-2.431,5.726c2.734,1.466,4.718,3.67,5.045,7.536c-0.061,0.867,0.733,1.385,1.308,1.989
		c0.485,0.518,0.946,0.942,1.306,1.308c0.963,0.969,1.671,1.997,2.605,2.556c0.469-1.303,0.891-2.646,0.945-4.357
		c0.038-0.191-0.085-0.54,0.059-0.628v-0.802c-0.144-0.093-0.021-0.438-0.059-0.631c-0.129-2.673-0.971-4.63-1.929-6.47
		c2.494-0.675,4.49-1.857,6.154-3.361c0.329-0.377,0.686-0.73,1.064-1.058c0.991-1.105,1.865-2.32,2.488-3.796v-1.122H60.268z"/>
	<path fill-rule="evenodd" clip-rule="evenodd" fill="#F27C21" d="M60.769,53.098c-0.08-2.076-0.608-3.711-1.248-5.226
		c1.812-0.645,3.224-1.526,4.605-2.803c0.357-0.32,0.913-1.099,1.247-1.184c0.591-0.15,1.88,0.312,2.426,0.559
		c2.165,0.968,3.967,3.223,3.735,6.35c-0.221,3.112-2.737,5.61-5.849,5.85c-2.33,0.181-3.746-0.713-4.977-1.871
		c0.073-0.165,0.068-0.422,0.061-0.682C60.872,53.906,60.872,53.289,60.769,53.098"/>
	<path fill-rule="evenodd" clip-rule="evenodd" fill="#DE5A26" d="M23.488,62.121c2.029-0.086,3.632-0.595,5.105-1.243
		c0.655,1.784,1.548,3.196,2.795,4.604c0.341,0.38,1.088,0.869,1.187,1.249c0.172,0.682-0.273,1.699-0.499,2.236
		c-0.833,2.026-2.728,3.703-5.23,3.923c-3.979,0.347-6.978-2.608-7.03-6.288c-0.032-2.047,0.804-3.35,1.864-4.543
		c0.104,0.106,0.369,0.05,0.57,0.062C22.513,62.225,23.217,62.225,23.488,62.121"/>
	<path fill-rule="evenodd" clip-rule="evenodd" fill="#FFFFFF" d="M61.002,38.186l-1.239-1.039h-0.116
		c-1.709-1.864-5.673-3.022-8.918-1.823c-0.801-1.896-1.58-3.816-2.368-5.725c2.833-1.484,5.024-3.938,5.042-8.028
		c-4.382,0.033-6.595,2.242-8.215,5.041c-1.874-0.829-3.875-1.525-5.662-2.429c1.244-3.439-0.068-7.539-2.122-9.215
		c-2.188,1.856-3.477,5.885-2.234,9.399c-1.927,0.776-3.827,1.572-5.731,2.368c-1.465-2.913-3.787-4.974-8.029-5.104v0.682
		c0.333,3.862,2.305,6.078,5.042,7.529c-0.795,1.925-1.531,3.906-2.428,5.729c-0.659-0.254-1.397-0.425-2.235-0.5h-1.435
		c-1.995,0.169-3.809,1.001-5.044,2.121c-0.07,0.064-0.228,0.141-0.296,0.253h-0.011l-0.76,0.822l0.997,1.125h0.026
		c1.684,1.896,5.695,3.097,8.974,1.886c0.799,1.889,1.574,3.813,2.364,5.725c-2.834,1.48-5.032,3.934-5.042,8.027
		c4.38-0.04,6.585-2.25,8.214-5.044c1.869,0.826,3.872,1.523,5.666,2.43c-1.251,3.438,0.064,7.538,2.116,9.213
		c2.188-1.857,3.476-5.881,2.24-9.402c1.916-0.776,3.825-1.57,5.726-2.361c1.462,2.911,3.787,4.964,8.033,5.1v-0.68
		c-0.331-3.862-2.311-6.076-5.049-7.534c0.796-1.925,1.541-3.896,2.433-5.725c0.657,0.252,1.397,0.425,2.243,0.497h1.424
		c1.999-0.168,3.813-0.994,5.046-2.117c0.081-0.071,0.271-0.165,0.316-0.289L61.002,38.186z"/>
	<rect x="80.418" y="11.347" fill="#CAC9C8" width="1.952" height="59.432"/>
</g>
<g id="Layer_3">
</g>
</svg>
